HIERARCHY
ROOT joint_Root
{
	OFFSET 0.0 0.0 0.0
	CHANNELS 6 Xposition Yposition Zposition Zrotation Xrotation Yrotation 
	JOINT Hips
	{
		OFFSET -0.726466 93.3139 -2.00062
		CHANNELS 6 Xposition Yposition Zposition Zrotation Xrotation Yrotation 
		JOINT Spine
		{
			OFFSET 15.7357 0.0 0.0
			CHANNELS 6 Xposition Yposition Zposition Zrotation Xrotation Yrotation 
			JOINT Chest
			{
				OFFSET 8.98455 -0.406207 0.0
				CHANNELS 6 Xposition Yposition Zposition Zrotation Xrotation Yrotation 
				JOINT Neck
				{
					OFFSET 16.3773 0.0 0.0
					CHANNELS 6 Xposition Yposition Zposition Zrotation Xrotation Yrotation 
					JOINT Head
					{
						OFFSET 6.45672 0.0 0.0
						CHANNELS 6 Xposition Yposition Zposition Zrotation Xrotation Yrotation 
						End Site
						{
							OFFSET 0.0 0.0 0.0
						}
					}
				}
				JOINT Shoulder_L
				{
					OFFSET 12.9942 -0.242716 4.98039
					CHANNELS 6 Xposition Yposition Zposition Zrotation Xrotation Yrotation 
					JOINT UpperArm_L
					{
						OFFSET 5.34809 0.0 0.0
						CHANNELS 6 Xposition Yposition Zposition Zrotation Xrotation Yrotation 
						JOINT LowerArm_L
						{
							OFFSET 24.3286 1.87007e-05 0.0
							CHANNELS 6 Xposition Yposition Zposition Zrotation Xrotation Yrotation 
							JOINT Hand_L
							{
								OFFSET 22.2916 0.0 0.0
								CHANNELS 6 Xposition Yposition Zposition Zrotation Xrotation Yrotation 
								End Site
								{
									OFFSET 0.0 0.0 0.0
								}
							}
						}
					}
				}
				JOINT Shoulder_R
				{
					OFFSET 12.9945 -0.242716 -4.98039
					CHANNELS 6 Xposition Yposition Zposition Zrotation Xrotation Yrotation 
					JOINT UpperArm_R
					{
						OFFSET -5.34813 0.0 0.0
						CHANNELS 6 Xposition Yposition Zposition Zrotation Xrotation Yrotation 
						JOINT LowerArm_R
						{
							OFFSET -24.3289 0.000322201 0.0
							CHANNELS 6 Xposition Yposition Zposition Zrotation Xrotation Yrotation 
							JOINT Hand_R
							{
								OFFSET -22.2915 -0.000108084 0.0
								CHANNELS 6 Xposition Yposition Zposition Zrotation Xrotation Yrotation 
								End Site
								{
									OFFSET 0.0 0.0 0.0
								}
							}
						}
					}
				}
			}
		}
		JOINT UpperLeg_L
		{
			OFFSET -2.19248 -6.46944 0.0
			CHANNELS 6 Xposition Yposition Zposition Zrotation Xrotation Yrotation 
			JOINT LowerLeg_L
			{
				OFFSET 39.0811 0.0 -1.23785e-05
				CHANNELS 6 Xposition Yposition Zposition Zrotation Xrotation Yrotation 
				JOINT Foot_L
				{
					OFFSET 40.9854 0.0 -1.26872e-05
					CHANNELS 6 Xposition Yposition Zposition Zrotation Xrotation Yrotation 
					JOINT Toes_L
					{
						OFFSET 11.7543 0.0 0.0
						CHANNELS 6 Xposition Yposition Zposition Zrotation Xrotation Yrotation 
						End Site
						{
							OFFSET 0.0 0.0 0.0
						}
					}
				}
			}
		}
		JOINT UpperLeg_R
		{
			OFFSET -2.19251 6.46944 0.0
			CHANNELS 6 Xposition Yposition Zposition Zrotation Xrotation Yrotation 
			JOINT LowerLeg_R
			{
				OFFSET -39.0811 -0.00228153 -0.0401928
				CHANNELS 6 Xposition Yposition Zposition Zrotation Xrotation Yrotation 
				JOINT Foot_R
				{
					OFFSET -40.9854 0.0 0.0
					CHANNELS 6 Xposition Yposition Zposition Zrotation Xrotation Yrotation 
					JOINT Toes_R
					{
						OFFSET -11.7543 0.0 0.0
						CHANNELS 6 Xposition Yposition Zposition Zrotation Xrotation Yrotation 
						End Site
						{
							OFFSET 0.0 0.0 0.0
						}
					}
				}
			}
		}
	}
}
MOTION
Frames:	5
Frame Time:	0.0333333
0.000000 0.000000 0.000000 0.000000 0.000000 -0.000000 136.872000 90.435700 -230.888000 86.500400 -9.385480 1.166900 15.735700 0.000005 -0.000001 97.297400 81.509700 -97.913000 8.984550 -0.406207 -0.000000 9.093590 2.138260 -1.400210 16.377300 -0.000001 -0.000001 6.179250 0.333326 -1.128610 6.456720 -0.000001 -0.000000 0.872235 -0.144170 5.586770 12.994200 -0.242716 4.980390 -88.287600 -3.927740 -66.421100 5.348090 -0.000007 -0.000001 -60.898700 32.375700 -10.126400 24.328600 0.000019 0.000005 3.591210 3.960410 -42.268900 22.291600 -0.000001 0.000005 6.584960 5.559840 -9.177720 12.994500 -0.242716 -4.980390 88.442200 4.003280 -68.717000 -5.348130 -0.000001 -0.000004 -50.393300 36.215600 -18.653200 -24.328900 0.000322 -0.000009 1.831180 2.114570 -40.929700 -22.291500 -0.000108 -0.000004 2.094030 5.594620 -11.025600 -2.192480 -6.469440 -0.000000 -177.646000 -9.381950 -13.776100 39.081100 -0.000007 -0.000012 -0.094049 0.129433 36.003400 40.985400 -0.000006 -0.000013 1.168660 -12.408100 -70.864500 11.754300 -0.000000 0.000003 -0.945496 -1.201070 -15.493500 -2.192510 6.469440 -0.000001 173.676000 8.430180 170.153000 -39.081100 -0.002282 -0.040193 0.235553 -0.122880 62.129200 -40.985400 0.000008 0.000006 -0.604973 1.391540 -50.336100 -11.754300 -0.000006 -0.000006 -0.023036 -0.183558 -24.078800
0.000000 0.000000 0.000000 0.000000 0.000000 -0.000000 136.861000 91.172100 -228.203000 85.728200 -8.292480 1.107590 15.735700 0.000005 -0.000001 92.774000 81.721000 -92.894200 8.984550 -0.406207 -0.000000 8.774000 0.796273 -0.301176 16.377300 -0.000001 -0.000001 6.669800 0.352981 -1.250580 6.456720 -0.000001 -0.000000 1.125940 1.111690 5.490430 12.994200 -0.242716 4.980390 -88.242200 -4.170270 -67.119400 5.348090 -0.000007 -0.000001 -57.532300 32.234700 -14.590800 24.328600 0.000019 0.000005 2.708080 2.685890 -45.270600 22.291600 -0.000001 0.000005 7.451480 5.567060 -9.538080 12.994500 -0.242716 -4.980390 88.410800 3.881170 -67.711300 -5.348130 -0.000001 -0.000004 -53.377200 34.940300 -13.574400 -24.328900 0.000322 -0.000009 1.812760 2.201360 -39.504500 -22.291500 -0.000108 -0.000004 2.017310 5.592380 -10.897100 -2.192480 -6.469440 -0.000000 -176.910000 -8.730330 -9.836500 39.081100 -0.000007 -0.000012 -0.049495 0.079216 31.998300 40.985400 -0.000006 -0.000013 2.050800 -12.131400 -70.657000 11.754300 -0.000000 0.000003 -0.895876 -1.132570 -15.602800 -2.192510 6.469440 -0.000001 175.559000 10.252300 166.356000 -39.081100 -0.002282 -0.040193 0.203457 -0.112195 60.740700 -40.985400 0.000008 0.000006 -0.133558 0.874049 -52.565500 -11.754300 -0.000006 -0.000006 -0.023192 -0.184366 -24.112200
0.000000 0.000000 0.000000 0.000000 0.000000 -0.000000 136.816000 91.737900 -225.628000 85.130900 -7.478300 1.028710 15.735700 0.000005 -0.000001 89.383500 81.787200 -89.036700 8.984550 -0.406207 -0.000000 8.659340 -0.173158 0.706068 16.377300 -0.000001 -0.000001 6.938120 0.243248 -1.401000 6.456720 -0.000001 -0.000000 1.335150 2.188920 5.463520 12.994200 -0.242716 4.980390 -88.102100 -4.691460 -67.944600 5.348090 -0.000007 -0.000001 -54.414900 31.736700 -19.057200 24.328600 0.000019 0.000005 2.029340 1.839460 -47.830600 22.291600 -0.000001 0.000005 8.046230 5.574640 -9.928020 12.994500 -0.242716 -4.980390 88.440200 3.604380 -66.579900 -5.348130 -0.000001 -0.000004 -55.549800 32.895200 -9.124340 -24.328900 0.000322 -0.000009 1.797610 2.264390 -38.478200 -22.291500 -0.000108 -0.000004 1.871540 5.589790 -10.749800 -2.192480 -6.469440 -0.000000 -176.329000 -8.218210 -5.998750 39.081100 -0.000007 -0.000012 -0.004829 0.009112 27.922000 40.985400 -0.000006 -0.000013 2.649870 -12.021400 -70.505200 11.754300 -0.000000 0.000003 -0.648561 -0.808857 -15.318500 -2.192510 6.469440 -0.000001 177.609000 11.684800 163.052000 -39.081100 -0.002282 -0.040193 0.151845 -0.098382 56.497600 -40.985400 0.000008 0.000006 0.154422 -0.364637 -54.682100 -11.754300 -0.000006 -0.000006 -0.022642 -0.181505 -23.994000
0.000000 0.000000 0.000000 0.000000 0.000000 -0.000000 136.739000 92.056800 -223.269000 84.632400 -6.398230 0.552591 15.735700 0.000005 -0.000001 85.523400 81.868300 -84.751500 8.984550 -0.406207 -0.000000 8.458200 -1.258760 1.635410 16.377300 -0.000001 -0.000001 7.165240 0.177115 -1.410910 6.456720 -0.000001 -0.000000 1.359560 3.152030 5.334530 12.994200 -0.242716 4.980390 -88.012800 -5.095480 -68.660600 5.348090 -0.000007 -0.000001 -50.776400 30.907700 -23.476000 24.328600 0.000019 0.000005 1.839170 1.521130 -50.419200 22.291600 -0.000001 0.000005 7.990260 5.577170 -10.061300 12.994500 -0.242716 -4.980390 88.430300 3.455000 -65.547700 -5.348130 -0.000001 -0.000004 -56.632400 30.977900 -5.512500 -24.328900 0.000322 -0.000009 1.801680 2.333350 -37.707600 -22.291500 -0.000108 -0.000004 1.930770 5.585980 -10.537300 -2.192480 -6.469440 -0.000000 -175.816000 -7.357460 -3.138560 39.081100 -0.000007 -0.000012 0.000254 -0.000558 24.465200 40.985400 -0.000006 -0.000013 2.824250 -11.897400 -70.265000 11.754300 -0.000000 0.000003 -0.673630 -0.839308 -15.624300 -2.192510 6.469440 -0.000001 179.812000 13.131500 160.007000 -39.081100 -0.002282 -0.040193 0.100906 -0.082697 49.741800 -40.985400 0.000008 0.000006 0.442881 -0.934681 -56.448800 -11.754300 -0.000006 -0.000006 -0.021881 -0.177494 -23.828500
0.000000 0.000000 0.000000 0.000000 0.000000 -0.000000 136.587000 92.044900 -220.977000 84.357900 -5.129850 -0.013130 15.735700 0.000005 -0.000001 81.547600 81.834600 -80.441600 8.984550 -0.406207 -0.000000 8.416800 -2.382950 2.385630 16.377300 -0.000001 -0.000001 7.169400 0.044974 -1.273820 6.456720 -0.000001 -0.000000 1.284680 3.901890 5.094940 12.994200 -0.242716 4.980390 -87.963200 -5.374570 -69.208300 5.348090 -0.000007 -0.000001 -46.671900 29.822000 -27.957500 24.328600 0.000019 0.000005 1.924100 1.459910 -52.816600 22.291600 -0.000001 0.000005 8.133470 5.578210 -10.115800 12.994500 -0.242716 -4.980390 88.341900 3.490640 -64.571500 -5.348130 -0.000001 -0.000004 -56.805300 29.593500 -2.815680 -24.328900 0.000322 -0.000009 1.964680 2.615120 -36.953300 -22.291500 -0.000108 -0.000004 1.985370 5.584440 -10.452500 -2.192480 -6.469440 -0.000000 -175.385000 -6.714150 -1.124790 39.081100 -0.000007 -0.000012 -0.003866 0.009403 22.350700 40.985400 -0.000006 -0.000013 2.693800 -11.303900 -70.697900 11.754300 -0.000000 0.000003 -1.059800 -1.347330 -15.757200 -2.192510 6.469440 -0.000001 -178.190000 14.272600 157.519000 -39.081100 -0.002282 -0.040193 0.058704 -0.063451 41.139600 -40.985400 0.000008 0.000006 0.345086 -0.852423 -57.189400 -11.754300 -0.000006 -0.000006 -0.023159 -0.184198 -24.105200
